# xmcd
#
# Track frame offsets:
#	150
#	15471
#	26832
#	44606
#	62229
#	79111
#	90772
#	108306
#	126413
#	145261
#
# Disc length: 2123 seconds
#
# Revision: 0
# Processed by: cddbd v1.4PL0 Copyright (c) Steve Scherf et al.
# Submitted via: dBpowerAMP V4.0
#
DISCID=8008490a
DTITLE=The FreeBand - Live at CWeeds Cabaret
DYEAR=1995
DGENRE=Country
TTITLE0=Oh Lonsome Me
TTITLE1=The Distance Between You and Me
TTITLE2=Mercury Blues
TTITLE3=Workin Man Blues
TTITLE4=Turn On Your Receiver
TTITLE5=Chattahootchie
TTITLE6=Drinkin My Baby Goodbye
TTITLE7=Boot Scoot Boogie
TTITLE8=A Thousand Miles
TTITLE9=Hey Baby
EXTD=
EXTT0=
EXTT1=
EXTT2=
EXTT3=
EXTT4=
EXTT5=
EXTT6=
EXTT7=
EXTT8=
EXTT9=
PLAYORDER=
